<?xml version="1.0" encoding="utf-8"?>
<!-- Generator: Adobe Illustrator 18.0.0, SVG Export Plug-In . SVG Version: 6.00 Build 0)  -->
<!DOCTYPE svg PUBLIC "-//W3C//DTD SVG 1.1//EN" "http://www.w3.org/Graphics/SVG/1.1/DTD/svg11.dtd">
<svg version="1.1" id="Kodi_Logo_1_" xmlns="http://www.w3.org/2000/svg" xmlns:xlink="http://www.w3.org/1999/xlink" x="0px"
	 y="0px" viewBox="0 0 512 512" enable-background="new 0 0 512 512" xml:space="preserve">
<g id="Kodi_Logo">
	<g>
		<path fill="#2E3192" d="M171.1,374.8c-6.2,6.2-6.2,16.4,0,22.6l73.5,73.5c6.2,6.2,16.4,6.2,22.6,0l73.5-73.5
			c6.2-6.2,6.2-16.4,0-22.6l-73.5-73.5c-6.2-6.2-16.4-6.2-22.6,0L171.1,374.8z"/>
	</g>
	<g>
		<path fill="#2E3192" d="M301.3,244.7c-6.2,6.2-6.2,16.4,0,22.6l73.5,73.5c6.2,6.2,16.4,6.2,22.6,0l73.5-73.5
			c6.2-6.2,6.2-16.4,0-22.6l-73.5-73.5c-6.2-6.2-16.4-6.2-22.6,0L301.3,244.7z"/>
	</g>
	<g>
		<path fill="#2E3192" d="M126.1,175.7c0-8.8-5.1-10.9-11.3-4.7L41,244.7c-6.2,6.2-6.2,16.4,0,22.6l73.7,73.7
			c6.2,6.2,11.3,4.1,11.3-4.7V175.7z"/>
	</g>
	<g>
		<path fill="#2E3192" d="M267.3,41c-6.2-6.2-16.4-6.2-22.6,0l-59.2,59.2c-6.2,6.2-11.3,18.5-11.3,27.3l-0.1,160.6
			c0,8.8,5.1,10.9,11.3,4.7l73.6-73.8c6.2-6.2,16.4-16.4,22.6-22.6l59.2-59.2c6.2-6.2,6.2-16.4,0-22.6L267.3,41z"/>
	</g>
</g>
</svg>
